<svg width="25" height="35" viewBox="0 0 25 35" fill="none" xmlns="http://www.w3.org/2000/svg">
<path d="M0.359032 18.4471C0.0302731 18.8847 0.0393595 19.4814 0.368776 19.9281C0.671118 20.3415 0.932284 20.699 1.22672 21.0295C4.28391 24.5146 5.95069 26.3276 8.97461 29.8398C9.74003 30.723 11.6511 33.4688 12.3737 34.4039C12.3867 34.4146 12.3878 34.4264 12.4008 34.4371C13.0506 35.2357 14.4425 35.0432 14.8033 34.0646C14.8033 34.0646 14.8022 34.0528 14.814 34.0517C15.3384 32.5317 15.7279 30.9767 16.2026 29.4375C17.5067 25.19 19.5259 21.424 23.2249 18.7289C24.5659 17.7525 24.5309 17.1343 23.3131 16.0195C22.8557 15.6089 22.3971 15.1866 21.9087 14.8268C17.1928 11.3683 13.7401 6.8692 10.9935 1.75298C10.8198 1.43491 10.5107 1.20145 10.1779 0.970253C9.74361 0.677025 9.1678 0.779732 8.84862 1.19261C8.58189 1.52877 8.3411 1.88637 8.2103 2.26933C7.92445 3.15708 7.92117 4.12545 7.78309 5.05886C7.04819 10.1365 4.73684 14.3486 0.940995 17.7821C0.731775 17.9693 0.550763 18.2017 0.359032 18.4471ZM10.1096 5.51827C11.7426 7.72893 13.1573 10.0321 14.969 11.9867C16.8197 13.9734 19.0544 15.6009 21.1261 17.3992C16.6146 20.7216 14.2756 25.5219 13.1364 31.2477C10.2015 26.4124 6.43026 22.7085 2.35226 19.2968C7.79986 14.2598 9.00431 12.1013 10.1096 5.51827Z" fill="black"/>
</svg>
